<?xml version="1.0" encoding="UTF-8"?>
<svg version="1.1" xmlns="http://www.w3.org/2000/svg" width="512" height="512">
<path d="M0 0 C1.00319275 -0.00571014 2.0063855 -0.01142029 3.03997803 -0.01730347 C4.14013245 -0.01842133 5.24028687 -0.01953918 6.3737793 -0.02069092 C7.53363342 -0.02565582 8.69348755 -0.03062073 9.88848877 -0.03573608 C13.74166453 -0.05038561 17.59479896 -0.0571685 21.44799805 -0.06268311 C23.45434798 -0.06698222 25.46069792 -0.07128187 27.46704769 -0.07565761 C33.06997861 -0.08747882 38.67289959 -0.09500781 44.27584171 -0.09845281 C51.47730954 -0.10290631 58.67858497 -0.1203209 65.87999439 -0.1494534 C71.46926906 -0.17126247 77.05849047 -0.18116756 82.64780712 -0.18249393 C85.97345889 -0.18353041 89.29878844 -0.1906868 92.62442017 -0.20731354 C140.69687019 -0.43026616 140.69687019 -0.43026616 152.5144043 10.30059814 C153.04936523 10.90774658 153.58432617 11.51489502 154.13549805 12.14044189 C152.84243607 16.45370161 151.18965517 20.00940722 148.8190918 23.83184814 C148.14620117 24.92626221 147.47331055 26.02067627 146.7800293 27.14825439 C146.42118652 27.72607666 146.06234375 28.30389893 145.69262695 28.89923096 C143.7525194 32.02472477 141.83328572 35.16299714 139.9128418 38.30059814 C139.51515594 38.94949005 139.11747009 39.59838196 138.70773315 40.26693726 C134.58898669 47.00313078 130.60699388 53.81677306 126.63549805 60.64044189 C120.72272087 70.78820033 114.69435864 80.85702264 108.57299805 90.88018799 C102.79951966 100.33903471 97.16034787 109.86980394 91.58407593 119.44607544 C87.61600146 126.25816547 83.61060407 133.04283227 79.4987793 139.76934814 C79.11595795 140.39606415 78.7331366 141.02278015 78.3387146 141.66848755 C76.51419621 144.65214596 74.68322758 147.63158344 72.8425293 150.60528564 C63.95872378 165.07617197 57.54202229 176.82596751 59.13549805 194.14044189 C61.07544139 201.69022141 64.31382492 207.60796839 71.07299805 211.70294189 C82.25675507 217.56286087 93.93854916 219.26938925 106.38525391 219.34576416 C107.89371384 219.36061356 107.89371384 219.36061356 109.43264771 219.37576294 C112.73852224 219.40721233 116.04441111 219.43206959 119.3503418 219.45684814 C121.64962628 219.47743198 123.9489071 219.49842883 126.2481842 219.51982117 C132.28643825 219.57489414 138.3247256 219.62436835 144.36303711 219.67266846 C150.53005929 219.72299162 156.69703337 219.77862113 162.86401367 219.83380127 C174.95446732 219.94120203 187.04496283 220.04268686 199.13549805 220.14044189 C199.22896238 231.88611105 199.2996453 243.63168899 199.34274673 255.37765694 C199.36345308 260.83420246 199.39145319 266.29049006 199.43725586 271.74688721 C199.48132803 277.03135517 199.50476185 282.31557808 199.51500702 287.60021591 C199.52229004 289.59723636 199.53650429 291.59424633 199.55841827 293.59115982 C199.89820903 325.89582181 192.50816358 358.24908675 169.98706055 382.44903564 C154.03273029 397.66199368 132.92026606 402.46300399 111.45727539 402.4151001 C110.25238968 402.42021103 109.04750397 402.42532196 107.80610657 402.43058777 C104.53967266 402.442008 101.27339826 402.44457373 98.0069499 402.44202447 C95.26596407 402.44094542 92.52500097 402.44586129 89.78402007 402.45062989 C83.31392205 402.46167173 76.84388214 402.46219145 70.3737793 402.45611572 C63.72533771 402.45006822 57.07710734 402.46241877 50.42870176 402.48368579 C44.69160704 402.50135475 38.95457926 402.50729519 33.21745837 402.50404805 C29.80341552 402.50224485 26.38952371 402.50477492 22.97550583 402.51876259 C19.16848331 402.53114492 15.3619468 402.52432482 11.55493164 402.51275635 C10.44089462 402.52040009 9.3268576 402.52804382 8.17906189 402.53591919 C-2.17430366 402.46663513 -11.3049808 400.63507445 -18.86450195 393.14044189 C-24.13272638 386.6078436 -27.11053275 380.41658286 -27.12177086 371.90433216 C-27.12821975 370.66604752 -27.13466864 369.42776289 -27.14131296 368.15195447 C-27.13837096 366.78587797 -27.13523555 365.41980187 -27.13192749 364.0537262 C-27.13566527 362.59620576 -27.1402673 361.13868733 -27.14565814 359.68117207 C-27.15788802 355.67978476 -27.15762768 351.67848106 -27.15526938 347.67707932 C-27.15486121 343.35994754 -27.16590052 339.04284256 -27.17538452 334.72572327 C-27.191996 326.26855168 -27.19749416 317.81140798 -27.19860928 309.35422144 C-27.19955979 302.47850085 -27.20367024 295.60278945 -27.21001053 288.72707176 C-27.22762421 269.22875322 -27.23684933 249.7304567 -27.23534958 230.23213015 C-27.23526967 229.18101609 -27.23518976 228.12990203 -27.23510742 227.04693604 C-27.23502566 225.99453683 -27.2349439 224.94213762 -27.23485966 223.85784753 C-27.23404697 206.80692543 -27.25317992 189.75609171 -27.28138416 172.70519517 C-27.31012233 155.19314363 -27.3239239 137.68113517 -27.3221966 120.16905946 C-27.32153297 110.33914756 -27.32701343 100.50932828 -27.3485527 90.67943764 C-27.36677688 82.30884124 -27.37110176 73.93837944 -27.35753386 65.56777177 C-27.35101013 61.2990364 -27.35086531 57.03055916 -27.36824036 52.76184845 C-27.38400293 48.84894367 -27.38107531 44.93650101 -27.36367209 41.02360728 C-27.36060914 39.61310018 -27.36420793 38.20255832 -27.37539224 36.79209224 C-27.45486563 26.05261966 -26.31694084 15.78129541 -18.64575195 7.64044189 C-13.22381189 3.07459763 -7.11841561 0.02427681 0 0 Z " fill="#244385" transform="translate(35.864501953125,54.85955810546875)"/>
<path d="M0 0 C26.81668623 -0.11686519 53.63333422 -0.20500397 80.45022392 -0.25906086 C92.90212396 -0.28482893 105.35386566 -0.31995305 117.80566406 -0.37719727 C128.66020824 -0.42707464 139.51463773 -0.45930116 150.36929333 -0.47044247 C156.11538781 -0.4769538 161.8611542 -0.49222873 167.6071434 -0.52865028 C173.01949217 -0.56267791 178.43137881 -0.57303914 183.84382439 -0.56553841 C185.82632016 -0.56690991 187.80883195 -0.57680177 189.79123497 -0.59602737 C208.90457825 -0.77224306 208.90457825 -0.77224306 217 5 C218.3921875 5.8971875 218.3921875 5.8971875 219.8125 6.8125 C227.45829092 14.45829092 229.21360223 22.77771913 229.29327393 33.26367188 C229.29191437 35.08185425 229.29191437 35.08185425 229.29052734 36.93676758 C229.29724457 38.22870529 229.30396179 39.52064301 229.31088257 40.85173035 C229.32847866 44.38081949 229.33323524 47.90981151 229.33451414 51.43894029 C229.33593997 53.6483518 229.34021771 55.85773895 229.34550858 58.06714439 C229.36398793 65.7880242 229.37218185 73.50883514 229.37060547 81.22973633 C229.36940473 88.40582351 229.39049894 95.5816096 229.4220928 102.75762063 C229.44831768 108.93622516 229.45897017 115.11473171 229.45769465 121.29339141 C229.45718682 124.97583636 229.46276982 128.65801352 229.48405075 132.3404026 C229.50716639 136.45215787 229.49787447 140.56324611 229.48583984 144.67504883 C229.49707886 145.88109772 229.50831787 147.08714661 229.51989746 148.32974243 C229.44433724 158.51790004 227.14730776 166.69931027 220.0625 174.2421875 C213.61969845 179.73321155 206.24847788 182.11193172 197.88153076 182.14044189 C196.87269836 182.14615204 195.86386597 182.15186218 194.82446289 182.15774536 C193.18030396 182.15942215 193.18030396 182.15942215 191.50292969 182.16113281 C190.33957092 182.16609772 189.17621216 182.17106262 187.9776001 182.17617798 C184.12568569 182.19078921 180.27381258 182.19760254 176.421875 182.203125 C175.08837103 182.20586309 173.7548673 182.20871966 172.42136383 182.21169281 C166.14599662 182.22536626 159.8706424 182.23503 153.59526134 182.2388947 C146.39379382 182.24335573 139.19251797 182.26081251 131.99110866 182.2898953 C126.40012641 182.31167532 120.80919739 182.32160781 115.21817327 182.32293582 C111.89149735 182.32397358 108.56514334 182.33115303 105.23848724 182.34775543 C75.1127796 182.48728089 48.44827216 178.77167492 25.875 156.9453125 C12.31877299 142.48886729 5.49620314 124.18076475 2 105 C1.74529434 103.63390846 1.74529434 103.63390846 1.48544312 102.24021912 C-0.30413739 91.38774565 -0.25555892 80.69709018 -0.1953125 69.7265625 C-0.19157392 67.70633078 -0.18873095 65.68609723 -0.18673706 63.66586304 C-0.17916707 58.39537387 -0.15957699 53.12499813 -0.1373291 47.85455322 C-0.11672629 42.45773858 -0.10770473 37.06090529 -0.09765625 31.6640625 C-0.07632368 21.10932566 -0.04226968 10.55467233 0 0 Z " fill="#244385" transform="translate(274,275)"/>
<path d="M0 0 C1.27024017 -0.01007584 2.54048035 -0.02015167 3.84921265 -0.03053284 C7.28714113 -0.0566883 10.72484484 -0.06405093 14.16286325 -0.0659802 C16.31957539 -0.06813057 18.47623245 -0.07456819 20.63293076 -0.08247185 C28.18110462 -0.11009844 35.72912099 -0.12249183 43.27734375 -0.12011719 C50.27704079 -0.11831246 57.27604613 -0.15004757 64.27556813 -0.19734818 C70.32103122 -0.23672417 76.36626924 -0.25266295 82.41185939 -0.25075096 C86.00721482 -0.24999114 89.60195208 -0.25825779 93.19717789 -0.29028511 C97.20744711 -0.3250484 101.21618281 -0.31099877 105.2265625 -0.29296875 C106.39572205 -0.30982727 107.56488159 -0.32668579 108.76947021 -0.34405518 C117.81055322 -0.24127727 125.29856546 2.26587337 132.41452217 7.98836422 C140.18274219 16.08111175 141.07466135 26.9845076 141.00146484 37.64306641 C141.00847412 38.91608109 141.0154834 40.18909576 141.02270508 41.50068665 C141.04077796 44.95943256 141.03393889 48.41769565 141.02118874 51.87644887 C141.01097912 55.51525516 141.0204761 59.1540233 141.0267334 62.79283142 C141.03398593 68.89955989 141.02448446 75.00609408 141.00537109 81.11279297 C140.98359702 88.15039502 140.99066697 95.18753354 141.01267672 102.22512442 C141.03088774 108.2934329 141.03336163 114.36160267 141.02292204 120.42992967 C141.01671951 124.04297914 141.01576137 127.65581142 141.02906799 131.26884651 C141.04287682 135.29880915 141.02368438 139.32798507 141.00146484 143.35791016 C141.00956177 144.53897339 141.01765869 145.72003662 141.02600098 146.93688965 C140.92319553 157.04050814 138.56885529 165.20147102 131.54638672 172.67797852 C123.95303065 179.1495888 115.86244341 180.59243826 106.1759491 180.55604553 C105.34271584 180.55689996 104.50948259 180.55775438 103.65099984 180.5586347 C100.86114269 180.5602808 98.07134575 180.55478234 95.28149414 180.54931641 C93.28078208 180.54903432 91.28006991 180.54919269 89.27935791 180.54975891 C83.84799997 180.55004605 78.41666408 180.54416271 72.98531127 180.53718495 C67.30916311 180.53093762 61.63301447 180.53034652 55.9568634 180.52915955 C45.20827896 180.52605031 34.45970468 180.51784239 23.71112472 180.50781006 C11.47424174 180.49663629 -0.76264172 180.49113528 -12.99952853 180.48611462 C-38.17172908 180.47565946 -63.34392061 180.45806788 -88.51611328 180.43579102 C-88.58611824 168.89904764 -88.63917793 157.36235612 -88.6715498 145.82544231 C-88.68709918 140.46639606 -88.70813742 135.10749683 -88.74243164 129.74853516 C-88.77541278 124.5613495 -88.79304656 119.37430381 -88.80074501 114.18702126 C-88.8062199 112.22382216 -88.81690701 110.26062933 -88.83330345 108.29749107 C-89.08763634 76.53661059 -82.78862287 45.83455114 -60.33642578 22.13500977 C-43.79934194 6.53684461 -22.34264849 -0.02607144 0 0 Z " fill="#244385" transform="translate(362.51611328125,54.564208984375)"/>
<path d="M0 0 C3.32699578 1.03968618 4.11440456 2.18322605 6 5.203125 C6.67928468 6.54577363 7.34554555 7.89507476 8 9.25 C8.495 10.20519531 8.495 10.20519531 9 11.1796875 C16.49446032 26.34425955 16.54150965 40.65153377 16.390625 57.2109375 C16.38315161 59.63473033 16.37746388 62.05852926 16.37347412 64.48233032 C16.35830438 70.81824845 16.31909798 77.15379158 16.2746582 83.48956299 C16.22626645 91.11473849 16.20813025 98.74004036 16.18484497 106.36532593 C16.14624133 117.91047697 16.06952608 129.45480748 16 141 C-16.01 141 -48.02 141 -81 141 C-79.46225159 137.15562897 -77.90554866 133.89762488 -75.8671875 130.3359375 C-75.23417725 129.22782715 -74.60116699 128.1197168 -73.94897461 126.97802734 C-73.25785491 125.77690015 -72.5665243 124.5758943 -71.875 123.375 C-71.1556352 122.12063135 -70.4363163 120.86623638 -69.71704102 119.61181641 C-64.21029858 110.02623389 -58.58983715 100.51062358 -52.93530273 91.01147461 C-45.83707082 79.07641742 -38.91489846 67.04190058 -32 55 C-23.43830747 40.09030164 -14.80958477 25.22612099 -6.01391602 10.45336914 C-5.37252686 9.37563232 -4.7311377 8.29789551 -4.0703125 7.1875 C-3.50070801 6.23230469 -2.93110352 5.27710937 -2.34423828 4.29296875 C-1.51965416 2.88641334 -0.72915528 1.45831055 0 0 Z " fill="#244385" transform="translate(219,94)"/>
</svg>
